# xmcd
# 
# Track frame offsets:
#     150
#     22213
#     53413
#     84170
#     118360
#     151270
#     183678
#     216043
#     238465
#     267823
# 
# Disc length: 3929
# 
# Revision: 8
# Processed by: cddbd v1.5.2PL0 Copyright (c) Steve Scherf et al.
# Submitted via: fre:ac v1.0.27
# 
DISCID=890f570a
DTITLE=Bill Evans Trio - Waltz for Debby (1961)
DYEAR=1992
DGENRE=Jazz
TTITLE0=My foolish heart
TTITLE1=Waltz for Debby [Take 2]
TTITLE2=Waltz for Debby [Take 1] [Bonus]
TTITLE3=Detour ahead [Take 2]
TTITLE4=Detour ahead [Take 1] [Bonus]
TTITLE5=My romance [Take 1]
TTITLE6=My romance [Take 2] [Bonus]
TTITLE7=Some other time
TTITLE8=Milestones
TTITLE9=Porgy (I loves you, Porgy) [Bonus]
EXTD=
EXTT0=
EXTT1=
EXTT2=
EXTT3=
EXTT4=
EXTT5=
EXTT6=
EXTT7=
EXTT8=
EXTT9=
PLAYORDER=
